<svg width="768" height="288" viewBox="0 0 768 288" fill="none" xmlns="http://www.w3.org/2000/svg">
<path d="M710.007 123.552C707.663 123.694 685.687 120.51 685.687 139.585C685.687 145.649 686.25 175.9 686.25 182.942C686.25 206.51 674.47 205.807 669.589 206.103C656.897 206.875 650.807 199.51 650.808 189.842C650.808 161.774 649.477 137.035 649.477 107.317C649.477 96.5581 656.137 93.4768 659.652 93.2632C671.368 92.5512 667.224 99.6507 685.969 98.5116C697.099 97.8352 705.861 91.0325 715.039 90.4748C736.165 89.191 757.245 98.897 757.747 119.357C758.047 131.576 758.381 164.279 758.752 179.371C759.35 203.768 755.138 205.113 738.346 206.133C727.216 206.809 723.648 199.897 723.423 196.187C722.687 184.081 727.161 157.278 726.306 143.219C725.666 132.675 718.403 123.042 710.007 123.552Z" fill="black"/>
<path d="M271.162 195.673C271.029 213.329 271.262 235.469 270.943 244.629C270.699 251.652 272.694 263.947 248.861 265.171C236.266 265.818 232.004 260.56 231.496 250.678C229.151 205.009 232.392 158.427 230.02 112.231C229.074 93.8227 256.076 90.5147 263.826 90.1166C313.044 87.5887 323.312 116.22 323.312 128.638C323.312 190.396 271.506 149.661 271.162 195.673ZM286.541 150.337C295.454 149.879 301.371 140.249 300.893 130.948C300.236 118.16 289.847 116.362 286.941 116.511C280.352 116.849 271.777 123.895 272.394 135.909C272.723 142.304 276.271 150.864 286.541 150.337Z" fill="black"/>
<path d="M139.83 204.22C120.303 197.614 109.918 176.444 107.199 156.4C105.238 141.945 111.038 124.345 119.406 112.265C127.595 100.444 153.227 83.9205 177.468 92.1211C206.557 101.962 220.521 138.122 211.028 166.182C196.714 208.494 160.105 211.078 139.83 204.22ZM180.811 154.896C184.631 144.194 180.283 129.399 168.066 125.266C156.405 121.321 145.929 129.376 141.808 140.585C137.395 152.589 145.195 165.478 155.392 168.557C164.448 171.293 176.893 165.874 180.811 154.896Z" fill="black"/>
<path d="M62.4305 137.626C61.8666 155.273 62.4883 177.709 61.9459 186.859C61.5301 193.874 62.5592 205.515 38.7026 206.156C26.0955 206.495 23.3438 201.58 23.3438 191.684C23.3436 146.073 23.6068 99.8362 23.6068 52.8014C23.6068 34.3689 50.1859 31.7288 57.9441 31.5204C107.209 30.1966 116.471 59.0667 116.471 71.4844C116.471 133.856 63.9 91.6355 62.4305 137.626ZM79.1549 92.2774C88.0769 92.0377 94.2273 82.5557 93.9771 73.2458C93.6332 60.4447 83.291 58.3936 80.3817 58.4717C73.7872 58.6489 65.0423 65.4832 65.3654 77.5085C65.5374 83.909 68.8752 92.5537 79.1549 92.2774Z" fill="black"/>
<path d="M574.087 30.6804C574.978 29.774 576.408 28.757 578.375 27.6293C580.404 26.4849 582.508 25.6207 584.688 25.0367C587.801 24.2025 590.666 23.9354 593.283 24.2354C595.945 24.4565 597.877 25.4404 599.079 27.1872C601.068 30.1248 603.291 33.5667 605.75 37.5129C608.209 41.4591 610.71 45.5609 613.252 49.8184C615.778 54.0137 618.264 58.1861 620.71 62.3358C623.14 66.4232 625.281 70.0541 627.133 73.2286C626.619 74.3006 625.682 75.2859 624.321 76.1845C622.977 77.1453 621.277 77.9011 619.222 78.4517C617.728 78.8521 616.418 79.0696 615.293 79.1042C614.23 79.122 613.289 78.9737 612.471 78.6591C611.714 78.3278 611.01 77.8158 610.357 77.1231C609.767 76.4137 609.174 75.5714 608.579 74.5963L605.171 68.6019L588.265 73.1319C588.267 75.1334 588.286 77.1972 588.322 79.3233C588.358 81.4494 588.377 83.5132 588.379 85.5147C587.591 86.0597 586.724 86.559 585.777 87.0128C584.91 87.5121 583.791 87.9454 582.421 88.3124C579.246 89.1633 576.738 89.2681 574.897 88.6266C573.103 87.9062 571.947 86.5809 571.429 84.6505C571.196 83.7788 571.087 82.8736 571.102 81.9351C571.118 80.9966 571.123 79.8941 571.117 78.6276C571.102 76.8295 571.135 74.585 571.215 71.8941C571.357 69.1864 571.511 66.2753 571.678 63.1606C571.828 59.9837 572.023 56.7278 572.264 53.393C572.505 50.0582 572.734 46.9269 572.95 43.9991C573.15 41.009 573.34 38.3552 573.52 36.0379C573.762 33.7038 573.951 31.918 574.087 30.6804ZM588.524 39.7261C588.353 42.575 588.141 45.7686 587.887 49.3069C587.68 52.7662 587.582 56.2628 587.595 59.7966L599.177 56.6933C597.404 53.5643 595.625 50.5371 593.84 47.6117C592.101 44.6073 590.515 41.9287 589.084 39.5759L588.524 39.7261Z" fill="black"/>
<path d="M514.311 58.9112C513.691 58.343 513.036 57.5174 512.346 56.4344C511.655 55.3514 511.134 54.1561 510.784 52.8485C510.133 50.42 510.195 48.5346 510.97 47.1924C511.808 45.8335 513.098 44.9205 514.841 44.4533L555.565 33.5414C556.185 34.1096 556.84 34.9351 557.53 36.0181C558.221 37.1011 558.741 38.2965 559.092 39.6041C559.743 42.0326 559.649 43.9263 558.812 45.2852C558.037 46.6274 556.778 47.5321 555.034 47.9993L544.667 50.7773L556.229 93.9296C555.594 94.2999 554.555 94.7787 553.11 95.366C551.728 95.9365 550.321 96.4137 548.889 96.7974C547.457 97.1812 546.147 97.3987 544.959 97.4499C543.851 97.5468 542.848 97.4151 541.95 97.0549C541.053 96.6947 540.284 96.0665 539.643 95.1703C539.003 94.2741 538.465 93.0165 538.032 91.3975L528.321 55.1571L514.311 58.9112Z" fill="black"/>
<path d="M464.581 67.5307C463.864 64.8532 464.075 62.5275 465.215 60.5536C466.354 58.5798 468.263 57.2341 470.94 56.5167L501.763 48.2577C502.383 48.8258 502.998 49.6286 503.61 50.666C504.284 51.6868 504.788 52.8198 505.122 54.0652C505.756 56.4314 505.677 58.2545 504.885 59.5344C504.156 60.7977 502.951 61.6546 501.269 62.1051L481.561 67.3858L483.889 76.0723L504.904 70.4412C505.524 71.0094 506.139 71.8121 506.751 72.8496C507.408 73.808 507.904 74.9099 508.238 76.1553C508.872 78.5215 508.824 80.3363 508.095 81.5995C507.365 82.8628 506.16 83.7197 504.479 84.1701L487.292 88.7752L489.92 98.5825L513.925 92.1505C514.544 92.7187 515.16 93.5214 515.772 94.5589C516.446 95.5796 516.949 96.7126 517.283 97.958C517.917 100.324 517.847 102.178 517.072 103.521C516.342 104.784 515.137 105.641 513.456 106.091L486.182 113.399C483.504 114.117 481.179 113.906 479.205 112.766C477.231 111.626 475.885 109.718 475.168 107.04L464.581 67.5307Z" fill="black"/>
<path d="M432.342 115.012C433.281 115.027 434.452 114.914 435.855 114.671C437.241 114.366 438.557 114.047 439.803 113.713C442.294 113.046 444.215 111.997 445.567 110.567C446.965 109.058 447.371 107.214 446.787 105.034C446.237 102.979 445.16 101.7 443.556 101.195C441.953 100.69 439.75 100.813 436.948 101.564L429.289 103.616L432.342 115.012ZM426.235 92.2212L433.054 90.3942C435.731 89.6768 437.528 88.6614 438.444 87.3481C439.423 86.0181 439.653 84.3879 439.136 82.4576C438.686 80.7763 437.611 79.6294 435.912 79.0169C434.275 78.3877 432.055 78.4485 429.253 79.1993C428.319 79.4495 427.238 79.7727 426.009 80.1686C424.843 80.5479 423.934 80.8916 423.282 81.1997L426.235 92.2212ZM441.942 126.555C440.884 126.838 439.63 127.141 438.181 127.462C436.732 127.784 435.204 128.06 433.598 128.29C432.053 128.504 430.492 128.655 428.914 128.744C427.353 128.896 425.883 128.889 424.504 128.725C420.729 128.335 418.407 126.521 417.54 123.283L405.852 79.6633C405.502 78.3557 405.577 77.2676 406.079 76.3991C406.626 75.4517 407.463 74.5931 408.592 73.8236C410.509 72.5091 413.013 71.2707 416.106 70.1084C419.181 68.8838 422.4 67.8211 425.763 66.9201C433.733 64.7844 440.226 64.4798 445.24 66.0061C450.254 67.5324 453.511 71.0976 455.013 76.7018C455.764 79.5039 455.605 82.1493 454.537 84.638C453.452 87.0644 451.664 89.1117 449.175 90.7798C452.522 90.8173 455.531 91.7128 458.204 93.4661C460.938 95.2028 462.772 97.8146 463.707 101.302C465.359 107.466 464.281 112.66 460.474 116.884C456.713 121.029 450.535 124.252 441.942 126.555Z" fill="black"/>
<path d="M615.676 95.7828C617.252 95.3605 618.892 95.1989 620.51 95.4029C629.084 96.4835 636.398 99.5003 636.398 109.784C636.398 121.797 631.115 125.046 624.674 125.046C618.754 125.046 612.725 121.551 602.802 121.551C598.972 121.551 590.072 124.256 590.072 139.229C590.072 154.376 590.452 170.476 590.452 187.016C590.452 205.122 582.605 206.973 575.815 206.973C571.147 206.973 556.176 206.998 556.176 190.284C556.176 167.719 556.455 145.089 556.537 122.361C556.56 116.027 560.813 110.483 566.932 108.844L615.676 95.7828Z" fill="black"/>
<path d="M382.878 90.0537C384.306 90.0537 385.537 91.0361 385.907 92.4154L391.725 114.13C392.506 117.046 389.977 119.812 386.959 119.812C370.103 119.812 367.332 134.066 367.161 145.732C366.868 165.796 368.766 172.672 388.499 172.672C404 172.672 404.562 163.506 411.58 163.506C414.699 163.506 427.853 162.884 427.854 174.26C427.854 188.881 413.45 206.559 387.522 206.56C354.354 206.56 334.168 199.22 334.168 148.035C334.168 100.663 352.856 90.0537 382.878 90.0537Z" fill="black"/>
<path d="M530.971 118.48C532.768 117.998 534.672 118.814 535.463 120.498C542.112 134.667 543.552 151.529 538.596 166.182C524.282 208.494 487.671 211.078 467.397 204.22C447.871 197.614 437.485 176.444 434.766 156.4C434.354 153.365 434.284 150.191 434.509 146.958C434.623 145.324 435.801 143.98 437.382 143.556L465.643 135.984C468.07 135.334 470.243 138.227 469.376 140.585C464.962 152.589 472.762 165.478 482.959 168.557C492.016 171.293 504.46 165.874 508.379 154.896C510.776 148.18 509.956 139.851 505.992 133.557C504.108 130.564 505.05 125.425 508.466 124.51L530.971 118.48Z" fill="black"/>
</svg>
