<svg width="134" height="50" viewBox="0 0 134 50" fill="none" xmlns="http://www.w3.org/2000/svg">
<path d="M123.265 21.45C122.858 21.4747 119.043 20.922 119.043 24.2335C119.043 25.2863 119.141 30.5381 119.141 31.7607C119.141 35.8524 117.096 35.7303 116.248 35.7818C114.045 35.9157 112.987 34.6371 112.987 32.9588C112.987 28.0857 112.756 23.7907 112.756 18.6315C112.756 16.7636 113.913 16.2286 114.523 16.1915C116.557 16.0679 115.838 17.3005 119.092 17.1027C121.024 16.9853 122.545 15.8043 124.139 15.7075C127.806 15.4846 131.466 17.1696 131.553 20.7218C131.605 22.843 131.663 28.5206 131.728 31.1409C131.832 35.3764 131.1 35.6098 128.185 35.787C126.253 35.9044 125.633 34.7043 125.594 34.0602C125.466 31.9584 126.243 27.3052 126.095 24.8645C125.984 23.0339 124.723 21.3614 123.265 21.45Z" fill="black"/>
<path d="M104.653 21.1026C103.988 21.1026 102.443 21.5723 102.443 24.1717C102.443 26.8013 102.509 29.5966 102.509 32.4681C102.509 35.6115 101.147 35.9328 99.9677 35.9328C99.1573 35.9328 96.558 35.9371 96.558 33.0354C96.558 28.4385 96.6249 23.826 96.6249 19.1889C96.6249 15.9481 98.5204 15.6344 99.7899 15.6344C101.059 15.6344 102.698 16.0868 104.637 16.3453C106.812 16.6353 110.486 16.0229 110.486 19.0597C110.486 21.1452 109.568 21.7094 108.45 21.7094C107.422 21.7094 106.376 21.1026 104.653 21.1026Z" fill="black"/>
<path d="M81.1451 35.4548C77.7549 34.3079 75.952 30.6327 75.4799 27.1527C75.1395 24.6433 76.1465 21.5877 77.5993 19.4904C79.0209 17.4382 83.4709 14.5695 87.6794 15.9932C92.7296 17.7017 95.1539 23.9794 93.5058 28.8511C91.0208 36.1968 84.665 36.6456 81.1451 35.4548ZM88.2598 26.8916C88.923 25.0337 88.1682 22.4652 86.0471 21.7476C84.0226 21.0627 82.2039 22.4611 81.4885 24.4071C80.7223 26.4911 82.0765 28.7288 83.8467 29.2634C85.4191 29.7383 87.5795 28.7976 88.2598 26.8916Z" fill="black"/>
<path d="M58.0153 25.7005C58.0153 17.4762 61.2598 15.6344 66.4719 15.6344C68.3002 15.6344 72.5407 16.0022 72.5407 18.5546C72.5407 20.79 71.7601 21.3744 70.5888 21.3744C69.675 21.3744 68.7372 20.8005 67.1804 20.8005C64.254 20.8005 63.7729 23.2753 63.7433 25.3006C63.6923 28.784 64.022 29.9777 67.4478 29.9777C70.1389 29.9777 70.2365 28.3865 71.4549 28.3865C71.9964 28.3865 74.2802 28.2785 74.2802 30.2535C74.2802 32.7919 71.7795 35.8609 67.2781 35.8609C61.5197 35.8609 58.0153 34.5869 58.0153 25.7005Z" fill="black"/>
<path d="M47.0765 33.971C47.0535 37.0363 47.0938 40.88 47.0386 42.4703C46.9962 43.6895 47.3426 45.8241 43.2048 46.0366C41.0181 46.1489 40.2783 45.2362 40.1902 43.5205C39.7829 35.5918 40.3457 27.5048 39.9338 19.4845C39.7697 16.2887 44.4574 15.7144 45.803 15.6452C54.3478 15.2064 56.1304 20.1771 56.1304 22.3329C56.1304 33.0548 47.1363 25.9827 47.0765 33.971ZM49.7465 26.1001C51.294 26.0206 52.3212 24.3488 52.2383 22.7341C52.1242 20.5138 50.3205 20.2017 49.8159 20.2276C48.6721 20.2864 47.1834 21.5096 47.2905 23.5953C47.3475 24.7055 47.9636 26.1917 49.7465 26.1001Z" fill="black"/>
<path d="M24.2765 35.4548C20.8863 34.3079 19.0833 30.6327 18.6112 27.1527C18.2708 24.6433 19.2778 21.5877 20.7306 19.4904C22.1523 17.4382 26.6023 14.5695 30.8108 15.9932C35.861 17.7017 38.2852 23.9795 36.6372 28.8511C34.1521 36.1969 27.7963 36.6456 24.2765 35.4548ZM31.3912 26.8916C32.0543 25.0337 31.2995 22.4652 29.1785 21.7476C27.1539 21.0627 25.3352 22.4611 24.6198 24.4071C23.8536 26.4911 25.2078 28.7288 26.9781 29.2634C28.5504 29.7383 30.7109 28.7976 31.3912 26.8916Z" fill="black"/>
<path d="M10.8387 23.8933C10.7408 26.9571 10.8487 30.8523 10.7546 32.4408C10.6824 33.6586 10.861 35.6797 6.71927 35.791C4.53053 35.8499 4.0528 34.9964 4.05279 33.2785C4.05277 25.3599 4.09847 17.3327 4.09847 9.16689C4.09847 5.96681 8.71289 5.50846 10.0598 5.47227C18.6127 5.24245 20.2206 10.2546 20.2206 12.4105C20.2206 23.2389 11.0938 15.9089 10.8387 23.8933ZM13.7422 16.0204C15.2912 15.9787 16.359 14.3326 16.3155 12.7163C16.2558 10.4939 14.4603 10.1378 13.9552 10.1513C12.8103 10.1821 11.2921 11.3686 11.3482 13.4563C11.3781 14.5675 11.9576 16.0683 13.7422 16.0204Z" fill="black"/>
</svg>
